<?xml version="1.0" encoding="utf-8"?>
<!-- Generator: Adobe Illustrator 26.2.1, SVG Export Plug-In . SVG Version: 6.00 Build 0)  -->
<svg version="1.1" id="Layer_1" xmlns="http://www.w3.org/2000/svg" xmlns:xlink="http://www.w3.org/1999/xlink" x="0px" y="0px"
	 viewBox="0 0 356.6 534.1" style="enable-background:new 0 0 356.6 534.1;" xml:space="preserve">
<style type="text/css">
	.st0{opacity:7.000000e-02;}
</style>
<g class="st0">
	<path d="M42.8,172.6l0.3,0l0,0L42.8,172.6c2,19.1,4,37.1,18.9,50c10,8.6,26.2,17.9,41.7,17.9c9.5,0,17.4-3.5,23.3-10.5
		c5.1-6.1,7.8-13.4,10.7-21.2c0.2-0.5,0.4-1.1,0.6-1.6l0.4-1.1c0.4-1,0.8-2.1,1.2-3.1l0.7-1.8c3.3-8.7,6.4-16.8,7.2-23.7
		c1.8-15.3-3.8-21.5-10.7-27.4c-10.6-9.2-24.4-9.9-39.1-10.7c-3.6-0.2-8-0.6-11.8-0.9c-6-0.5-14.2-1.3-20.9-1.3
		c-7,0-11.6,0.8-14.2,2.5c-10.5,6.9-9.3,23.8-8.3,30.7L42.8,172.6z M51.6,140.8c2.3-1.6,6.7-2.3,13.5-2.3c6.4,0,14,0.7,20.8,1.3
		l1.5,0.1c3.8,0.3,7.3,0.6,10.3,0.8c14.4,0.7,28,1.4,38.3,10.4c6.6,5.7,11.9,11.6,10.2,26.3c-0.8,6.6-3.8,14.6-7,23.2l-0.7,1.9
		c-0.4,1.1-0.8,2.1-1.2,3.2c-0.4,0.9-0.7,1.8-1,2.7c-3,8-5.5,14.9-10.5,20.8c-5.7,6.7-13.2,10.1-22.3,10.1
		c-15.2,0-31.1-9.1-40.9-17.6C48,209,46.1,191.3,44.1,172.4l-0.3-2.2C42.8,163.5,41.6,147.3,51.6,140.8L51.6,140.8z"/>
	<path d="M56.9,175.6l0,0.1c1.8,16.4,3.3,30.6,16.7,41.2c6.2,4.9,17.4,10.7,28.6,10.7c5.6,0,10.3-1.5,14-4.3
		c10.5-8.1,15-24.9,15.7-36.8c0.8-13.8-4.3-26-13.6-32.5c-8.6-6-19.4-6.6-30.8-7.2l-1,0c-2.1-0.1-4.3-0.2-6.5-0.2
		c-7.3,0-16.2,0.9-20.9,8.1c-2.7,5.5-2.5,12-2.3,17.7L56.9,175.6z M80.1,147.9c2.6,0,5.2,0.1,7.4,0.3l0.2,0
		c11.2,0.6,21.8,1.2,30,6.9c9,6.3,13.8,18,13,31.4c-0.7,11.7-5.1,28.1-15.3,35.9c-3.5,2.7-8,4.1-13.2,4.1
		c-10.8,0-21.7-5.6-27.8-10.5c-13-10.3-14.4-23.6-16.2-40.4c0-1,0-2.1-0.1-3.2l0-0.1c-0.1-5.9-0.3-11.9,2.2-17
		C64.6,148.7,73.2,147.9,80.1,147.9z"/>
	<path d="M84.9,209.6c4.5,2.9,9.5,4.5,14.2,4.5c6.2,0,11.4-2.7,15.1-7.8c8.5-11.8,4.7-34-7.5-43.2c-3.3-2.5-8.9-5.6-17.1-5.6
		c-1.9,0-3.9,0.2-5.8,0.5c-8.7,1.5-13.2,8.3-13,19.7C70.9,186.3,72.9,201.8,84.9,209.6z M99.1,212.8c-4.5,0-9.3-1.5-13.6-4.3
		C74.1,201.1,72.2,186,72,177.7c-0.2-10.7,4-17.1,12-18.4c1.9-0.3,3.8-0.5,5.6-0.5c7.7,0,13.2,2.9,16.3,5.3
		c5.6,4.2,9.6,11.5,11,19.9c1.4,8.2,0,16.3-3.8,21.5C109.8,210.3,104.9,212.8,99.1,212.8z"/>
	<path d="M277.7,5.9c3.6,1.8,7.6,2.6,11.5,2.6c3.2,0,6.3-0.6,9.2-1.8c3.2-1.3,6-3.4,8.1-6l0.7-0.8h-1.6l-0.2,0.2
		c-2,2.4-4.5,4.2-7.4,5.4c-6.1,2.5-13.5,2.2-19.7-0.8c-2-1-3.9-2.5-5.7-4.6L272.4,0h-1.7l0.7,0.8C273.3,3.1,275.5,4.8,277.7,5.9z"/>
	<path d="M351.7,77.7l0,0.2c-1.4,7.1-2.8,13.9-4.8,18.7c-7.6,18.3-29.8,26.8-42.5,30.2c-4.4,1.2-8.3,1.8-12.1,1.8
		c-14.4,0-22.3-9.3-30.6-19.2c-1.7-2-3.5-4-5.3-6.2l-0.1-0.2c-5.3-6.1-10.7-12.4-14.8-18.1c-4.1-5.8-7.6-12.2-11-18.4l-0.1-0.2
		c-2.9-5.3-6.1-11.3-9.8-16.7c-0.3-0.5-0.7-0.9-0.9-1.3c-5.3-6.9-13.3-10.3-21.1-13.7c-1.6-0.7-3.2-1.4-4.7-2.1
		c-4-1.8-8.4-2.7-12.7-3.6c-1-0.2-2-0.4-3.1-0.6c-1.2-0.3-2.4-0.6-3.5-0.9l-0.4-0.1c-2.5-0.7-5-1.5-7.6-1.5c-0.6,0-1.3,0-2,0.1
		l-0.1,0c-2.7,0.5-5.9,1-9,1c-5.9,0-9.6-1.9-11.2-5.9c-1.8-4.2-1.2-11.4-0.6-17.8l0.1-0.8c0.1-0.7,0.1-1.4,0.2-2l0-0.5h-1.3l0,0.5
		c-0.1,0.9-0.1,1.8-0.2,2.8c-0.5,6.2-1.2,13.9,0.7,18.4l0,0c1.9,4.5,5.9,6.7,12.4,6.7c3.2,0,6.7-0.6,9.1-1l0.2,0
		c0.5-0.1,1.1-0.1,1.8-0.1c2.5,0,5.1,0.8,7.4,1.4c1.2,0.4,2.6,0.8,3.9,1c0.6,0.1,1.2,0.3,1.8,0.4c0.4,0.1,0.8,0.2,1.3,0.3
		c4.2,0.8,8.5,1.7,12.4,3.5c1.5,0.7,3,1.4,4.7,2.1c7.6,3.3,15.5,6.7,20.6,13.3c0.2,0.3,0.4,0.5,0.6,0.8l0.3,0.4
		c3.5,5.2,6.6,10.9,9.7,16.6c3.2,5.9,6.8,12.6,11.2,18.7c4.1,5.8,9.6,12.1,14.9,18.3l0.1,0.1c1.9,2.2,3.6,4.2,5.3,6.2
		c8.5,10.1,16.6,19.6,31.6,19.6c3.8,0,7.8-0.6,12.4-1.8c12.8-3.4,35.5-12,43.3-30.9c2-5,3.4-11.8,4.9-19.2
		c1.1-5.5,2.2-11.1,3.7-15.9l0-4.2l-1,3C354,66,352.8,72.2,351.7,77.7z"/>
	<path d="M253.5,8.8l0,0.1l0.1,0.1c8,10.8,22.2,17.3,38,17.3c3.9,0,7.7-0.4,11.3-1.2c15.1-3.3,18.9-14.3,20.7-24.5l0.1-0.6h-1.3
		l-0.1,0.4c-0.7,4.1-1.6,7.3-2.8,10.1c-3.1,7.3-8.5,11.5-16.9,13.4c-3.5,0.8-7.3,1.2-11.1,1.2c-15.3,0-29.2-6.3-37-16.8
		c-0.9-2.4-1.7-5.4-2.3-7.9L252.3,0H251l0.1,0.6C252,4,252.7,6.7,253.5,8.8z"/>
	<path d="M178.2,14.8L178.2,14.8c7.2,1,14.1,3.2,20.2,5.1c3.7,1.2,8.4,2.6,13,3.7c2.7,0.6,5.5,1.2,8.2,1.6c2.6,0.4,4.9,0.6,6.8,0.6
		c4.1,0,6.5-0.9,7.3-2.7c2.1-4.4,3.5-13.7,3.6-22.7l0-0.5H236l0,0.5c-0.1,8.6-1.5,17.9-3.5,22.1c-0.6,1.3-2.7,1.9-6.2,1.9
		c-1.9,0-4.1-0.2-6.6-0.6c-2.6-0.4-5.4-0.9-8.1-1.6c-4.4-1-8.7-2.4-12.9-3.7l-0.2-0.1c-6.5-2-13.2-4.1-20.3-5.1
		c-6.8-1-12.2-5.7-15.4-13.2L162.8,0h-1.4l0.3,0.7C165.1,8.7,170.9,13.7,178.2,14.8z"/>
	<path d="M346.8,40.9c-3,3.8-3.3,11.2-3.4,17.2l0,1.5c0,0.9,0,1.7-0.1,2.4c-0.7,14.7-2.3,30.1-12.9,41.5
		c-10.3,8.8-22.4,13.8-33.1,13.8c-9.2,0-17-3.5-23.2-10.5c-4.1-4.6-7.6-9.4-11.7-15.1c-2.2-3.1-4.6-6.4-7.1-9.6
		c-12.3-15.8-17.9-28.7-19.1-44.3c-0.4-3.7,0.6-8.1,4.5-9.3c7.8,0.5,16.5,3.2,24.1,5.6l0.2,0.1C274,37,283.4,40,292.2,40
		c1.5,0,3.1-0.1,4.8-0.3c0.8-0.1,1.6-0.2,2.5-0.3c8.7-1.1,20.7-2.6,27.6-8c6.8-5.2,7.2-13.9,7.5-23.9l0.1-1.5
		c0.1-1.6,0.1-3.2,0.2-4.8c0-0.2,0-0.3,0.1-0.5l0.1-0.7h-1.3v0.5c0,0.1,0,0.2,0,0.3c0,0.1,0,0.2,0,0.3c-0.2,2.1-0.2,4.2-0.3,6.2
		l0,0.2c-0.4,9.7-0.7,18.1-7,23c-6.7,5.2-18.5,6.7-27.1,7.7l-0.4,0.1c-0.7,0.1-1.4,0.2-2.1,0.3c-1.5,0.2-3,0.3-4.6,0.3
		c-8.7,0-18-2.9-26.9-5.7l-0.7-0.2c-8-2.5-16.3-5.1-24.1-5.5l-0.2,0l-0.1,0.1c-4.7,1.4-5.9,6.4-5.4,10.6c1.3,15.9,6.9,29,19.4,45
		c2.5,3.2,4.9,6.5,7.1,9.6l0.7,1c3.6,5,7.1,9.7,11.1,14.2c6.4,7.2,14.6,10.9,24.1,10.9c11,0,23.4-5.1,34-14.1
		c10.9-11.8,12.5-27.4,13.3-42.4c0-0.8,0.1-1.7,0.1-2.6l0-1.2c0.2-5.8,0.4-13.1,3.2-16.6c2.2-2.8,4.9-5.2,8.6-7.8l0.2-0.1v-1.5
		l-0.8,0.6C353.1,34.5,349.7,37.1,346.8,40.9z"/>
	<path d="M349.9,132.5l-0.1,0.1c-4.5,2.1-8.7,4-12,6.6l-0.1,0.1c-1.8,1.4-4.8,3.8-4.5,7.2l0.1,0.3l0.2,0.2c0.6,0.5,1.1,1,1.5,1.4
		l0.1,0.3h0.3c3.5,0.7,6.9,1,10.4,1c3.4,0,7-0.4,10.5-1.1l0.4-0.1v-1.3l-0.6,0.1c-6.6,1.4-13.6,1.4-20.2,0.1
		c-0.4-0.4-0.8-0.9-1.3-1.3c-0.1-2.5,2.3-4.4,4-5.8l0.1-0.1c3.3-2.6,7.7-4.6,11.9-6.5c2.1-1,4-1.9,5.8-2.8l0.3-0.1v-1.4l-0.7,0.4
		C354.1,130.6,352.1,131.5,349.9,132.5z"/>
	<path d="M356.1,8.9c-2.7,0-5.4-2.9-5.6-6.3c-0.1-0.7-0.1-1.4,0-2.1l0-0.5h-1.3l0,0.5c-0.1,0.9-0.1,1.6,0,2.3c0.3,4,3.5,7.4,6.9,7.4
		h0.5V8.9H356.1z"/>
	<path d="M312.5,51.7c-1.8,0-3.6,0.2-5.6,0.6c-4.1,0.8-8.4,2.1-13.1,3.4l-0.4,0.1c-5.1,1.5-10.3,3-15.3,3.9c-5,0.9-7.2,3.3-6.7,7
		l0,0.2c1.6,3.4,2.9,7.2,4.2,11.3l0,0.2c2.9,9,6,18.4,13.5,23.4c3.6,2.3,7.9,3.5,12.5,3.5c7.5,0,15.2-3.1,20.5-8.4
		c4.4-4.3,7.7-11.4,8.6-18.9c1.1-7.9-0.5-15.4-4.4-20.6C324.1,53.8,318.6,51.7,312.5,51.7z M321.5,95.8c-5.2,5-12.5,8-19.6,8
		c-4.4,0-8.5-1.2-11.8-3.3c-7.1-4.6-10.1-13.7-13-22.5l-0.1-0.3c-1.3-4.1-2.6-7.9-4.2-11.4c-0.4-3,1.3-4.7,5.6-5.5
		c5.1-0.9,10.4-2.4,15.8-4c5-1.5,9.1-2.7,12.9-3.4c1.8-0.4,3.6-0.5,5.3-0.5c5.8,0,10.8,2,13.2,5.2C333.7,68.9,330,87.6,321.5,95.8
		L321.5,95.8z"/>
	<path d="M137.5,257c8.4-4.3,10.6-11.9,13.1-20c0.3-0.8,0.5-1.7,0.8-2.5c3.4-11.2,8.4-22.5,21.3-29.6l0.1-0.1l0.1-0.1
		c0.1-0.1,0.1-0.2,0.2-0.3c1.7-0.9,3.5-1.8,5.2-2.8l6.9-3.6c3.4-1.8,6.9-3.6,10.3-5.4c1-0.5,2.1-1.1,3.1-1.6c1-0.5,2.1-1.1,3.1-1.6
		c2.9-1.6,6.3-3.4,9.6-5c2.1-1,4-2.4,5.8-3.8l1.9-1.4c1.7-1.2,3.7-2.6,6-3.5c4.1-1.6,8.7-1.8,13.1-2l0.3,0c3.5-0.1,7.9-0.3,12-1.5
		c3.6-1,6.4-2,8.6-5.3c7-10.2,3.5-17.8-2.2-27.4c-6-10-13.2-17.8-21.5-23.1c-1.4-0.9-3-1.7-4.7-2.5c-1.7-0.8-3.5-1.6-5-2.7
		c-1.9-1.3-3.8-2.8-5.4-4l-1-0.7c-1.1-0.9-2.2-1.7-3.4-2.6c-6.1-4.4-13.3-9.2-21.4-12c-2.2-0.8-4.9-1.1-8.2-1.1
		c-2.3,0-4.6,0.2-6.6,0.6c-2.6,0.5-4.7,1.7-6.8,2.8c-0.7,0.4-1.7,1-2.8,1.5c-1,0.4-1.9,0.8-2.9,1.1l-0.3,0.1c-1.5,0.5-2.9,1-4.2,1.8
		c-3.2,1.8-6.2,3.7-9.5,5.9c-2.8,1.8-5.9,3.9-9.1,5.7c-14.7,8.3-27.3,13-39.7,14.7c-8.4,1.2-16.7,1-24.6-0.4
		c-3.6-0.7-7.2-1.7-10.5-2.6l-0.1,0c-6.1-1.7-12.3-3.4-18.5-3.4c-3.5,0-6.6,0.5-9.5,1.6c-6,2.2-11.2,6.7-16.8,11.5l-0.3,0.2
		c-2.7,2.3-5.6,4.7-8.6,7c-0.7,0.5-1.6,1.1-2.6,1.8l-0.6,0.4c-2.2,1.6-4.7,3.3-6.9,5.2c-4.7,4-5.9,7.7-4.4,12.7
		c1.2,3.9,3.2,7.8,5.7,12.4c1.3,2.6,2.7,5.2,3.9,7.8c0.9,2,1.9,4.2,2.8,6.3l0.4,0.9c6.2,14.1,12.6,28.6,21.9,40.3
		c3.4,4.2,7.4,8.3,11.4,12.3l0.8,0.8c4,3.9,7.7,7.7,10.7,11.4c1.5,1.8,2.8,3.8,3.9,5.6c2.6,4,5.1,7.9,9.3,10.5l0.1,0.1l1.3-0.1
		c15.5-0.9,28.9-1.7,43.2-4.3C126.2,261,133.4,259,137.5,257z M71.9,266c-3.9-2.5-6.2-6.2-8.7-10c-1.3-2-2.5-3.9-4-5.8
		c-3-3.7-6.5-7.3-10.9-11.6l-0.7-0.7c-3.9-3.9-8-8-11.3-12.2c-9.3-11.7-15.7-26.2-21.9-40.2l-0.5-1.1c-0.9-2-1.7-4-2.6-5.9
		c-1.2-2.6-2.6-5.2-4-7.9l-0.3-0.5c-2.1-4.1-4.2-8-5.3-11.7c-1.4-4.5-0.3-7.7,4-11.3c2.3-1.9,4.9-3.8,7.1-5.3l0.4-0.3
		c1.2-0.8,2-1.4,2.6-1.9c3.1-2.3,6-4.7,8.7-7.1l0.3-0.2c5.5-4.7,10.6-9.1,16.4-11.2c2.9-1,5.9-1.5,9.1-1.5c6.1,0,12.3,1.8,18.3,3.5
		c3.3,0.9,7,2,10.6,2.6c8.2,1.5,17,1.6,25,0.4c12.5-1.8,25.2-6.5,40.1-14.9c2.8-1.5,5.5-3.3,8.1-5l1.1-0.7c2.8-1.9,6.1-4,9.4-5.9
		c1.3-0.7,2.8-1.2,4-1.7l0.1,0c1.1-0.4,2.2-0.7,3.2-1.3c0.8-0.4,1.5-0.8,2.3-1.2l0.9-0.5c2-1.1,3.9-2.1,6.2-2.5
		c2-0.4,4.2-0.6,6.4-0.6c1.7,0,5,0.1,7.8,1.1c8,2.8,15.1,7.6,21,11.9c1.5,1.1,3,2.2,4.3,3.3l0.9,0.7c1.5,1.1,3,2.3,4.5,3.4
		c1.7,1.2,3.7,2.1,5.2,2.8l0.2,0.1c1.5,0.7,3,1.4,4.4,2.3c8.2,5.3,15.3,12.9,21.1,22.7c5.5,9.2,8.8,16.5,2.3,26.1
		c-2,2.9-4.3,3.8-7.9,4.8c-3.6,1.1-7.4,1.3-11.1,1.4l-0.5,0c-4.4,0.2-9.3,0.4-13.8,2.1c-2.4,0.9-4.5,2.4-6.2,3.6
		c-0.4,0.3-0.7,0.5-1.1,0.8l-0.6,0.4c-1.9,1.4-3.8,2.8-5.8,3.8c-3.2,1.6-6.4,3.2-9.4,4.9l-1.5,0.8c-1.6,0.9-3.3,1.7-4.9,2.6
		c-5,2.6-9.9,5.1-14.4,7.5c-2.7,1.5-5.4,2.9-8.2,4.3l-0.2,0.1c-0.1,0.1-0.2,0.2-0.3,0.3c-13.2,7.3-18.2,18.9-21.8,30.4
		c-0.3,0.8-0.5,1.6-0.7,2.4c-2.3,7.8-4.6,15.2-12.5,19.2c-4,2-11,4-21.1,5.8c-14.3,2.6-27.6,3.4-43.1,4.3L71.9,266z"/>
	<path d="M144.9,217.5c7.5-17.9,20.5-41.1,40.3-49.8c3.5-1.5,7-1.9,10.6-2.2c1.5-0.1,2.9-0.3,4.4-0.5c5.7-0.8,12-2,19.3-3.6
		c1-0.2,2.1-0.4,3.1-0.7c5.5-1.2,12.8-4.7,15.2-10.5c1.8-4.3,1.5-8.2-0.7-11.7c-6.6-10-29.2-13.4-38.5-13.4h-0.2
		c-4.2,0-8.7,0.5-12.3,0.8l-0.8,0.1c-2,0.2-4.1,0.4-6.1,0.6c-4,0.3-7.2,1.4-11.1,3.9c-4,2.5-8.2,3.6-13.3,3.6
		c-3.8,0-7.6-0.6-11.7-1.2l-0.3,0c-1.2-0.2-2.4-0.4-3.6-0.6l-0.3,0c-5.4-0.8-11.3-1.2-18.5-1.2c-4.5,0-9.1,0.1-13.2,0.3l-1.3,0
		c-3.9,0.1-7.8,0.2-11.8,0.2c-7.9,0-14.2-0.5-20.1-1.5c-1.6-0.3-3.3-0.7-5.2-1.1l-0.4-0.1c-4.2-1-9-2.2-13.9-2.2
		c-2.7,0-5.2,0.3-7.4,1c-11.3,3.4-20.7,17.2-22.5,28c-0.6,4-0.6,8.1,0.3,13c1.3,7.3,3,13.7,4.8,20.4l0.5,2
		c5.5,20.3,13.5,32.3,29.8,44.2l0.6,0.5c8.7,6.4,16.2,11.9,24.6,14.5c4.2,1.4,9.4,2.1,15,2.1c7.3,0,14.8-1.3,20-3.4
		C134.2,243.3,139.2,231.3,144.9,217.5z M54.7,128.1c4.8,0,9.7,1.2,13.6,2.1c1.7,0.4,3.7,0.9,5.6,1.2c5.8,1,12.3,1.5,20.3,1.5
		c4.4,0,8.9-0.1,13.1-0.3c4.1-0.1,8.7-0.3,13.2-0.3c7,0,12.8,0.4,18.3,1.2c0.9,0.1,1.8,0.3,2.6,0.4l1.3,0.2
		c4.2,0.7,8.2,1.3,12.1,1.3c5.4,0,9.8-1.2,14-3.8c3.8-2.4,6.8-3.4,10.6-3.7c2.1-0.2,4.5-0.4,6.9-0.6c4.4-0.5,8.3-0.8,12.2-0.8h0.2
		c9.1,0,31.1,3.3,37.5,12.8c2,3.1,2.3,6.6,0.6,10.5c-2.2,5.3-9.1,8.6-14.3,9.7l-0.7,0.2c-0.8,0.2-1.6,0.3-2.4,0.5
		c-7.4,1.6-13.7,2.7-19.3,3.5c-1.5,0.2-3.1,0.3-4.4,0.5l-0.2,0c-3.7,0.4-7.2,0.7-10.9,2.3c-20.2,8.8-33.4,32.3-41,50.5
		c-5.6,13.6-10.5,25.3-23.8,30.8c-5,2.1-12.4,3.3-19.6,3.3c-5.4,0-10.4-0.7-14.6-2c-8.2-2.6-15.6-8-24.2-14.3l-0.6-0.4
		c-16-11.8-24-23.5-29.3-43.5l-0.5-2c-1.7-6.3-3.5-12.9-4.8-20.3c-0.8-4.7-0.9-8.7-0.3-12.6v0c1.7-10.4,10.7-23.7,21.6-26.9
		C49.9,128.4,52.2,128.1,54.7,128.1z"/>
	<path d="M350.4,177.2c-7.2,0-13.6,2.2-19,6.6l-0.2,0.2c-0.6,1.1-1.2,2.1-1.7,2.9c-1.8,2.9-3,4.9-3.6,10c-0.4,4-0.3,8.1-0.1,12
		l0,0.2c0.2,4.5,0.4,9.2-0.4,13.9c-2.7,16.6-15.9,33.6-30.7,39.7c-1.4,0.6-3.3,1.3-4.7,1.6c-1.2,0.2-2.1,0.3-3,0.3
		c-8.4,0-10.3-8.4-12.2-16.6l-0.3-1.2c-0.3-1.4-0.7-2.9-1.1-4.3c-2-6.9-4.8-11.5-8.9-15c-4.1-3.4-9.6-5.6-17.9-7.1
		c-3.4-0.6-6.5-0.9-9.4-0.9c-5.7,0-11.2,1.1-18.3,3.6c-0.3,0.1-0.6,0.2-0.9,0.3c-3.8,1.3-7.4,2.5-9.9,6.4
		c-4.6,7.2-8.3,18.7-6.5,26.9c1.8,8.3,7.9,9.9,13.9,11.5c1.2,0.3,2.3,0.7,3.5,1c1.9,0.6,3.3,1.2,4.5,1.9c9.3,5.2,19.4,9.9,32,14.7
		c10.5,4.1,15.6,13,20.6,21.8l0.1,0.1c4.9,8.5,10,17.4,20.1,21.6c1.6,0.7,3.4,1,5.3,1c2.2,0,4.8-0.5,7.5-1.4
		c7.3-2.5,13.8-10.3,18.6-16.8l0.1-0.1c7.5-10,16.7-22.4,27.7-30.4l1.1-0.7v-1.6l-0.8,0.6c-0.3,0.2-0.7,0.5-1,0.7
		c-11.1,8.1-20.4,20.6-28,30.7l-0.1,0.1c-4.7,6.3-11,13.9-18,16.3c-4.7,1.6-8.7,1.7-11.9,0.4c-9.8-4.1-14.8-12.8-19.6-21.2
		c-5.1-8.9-10.3-18-21.3-22.3c-12.5-4.8-22.6-9.5-31.8-14.7c-1.4-0.8-2.9-1.4-4.8-2c-1-0.3-2-0.6-3-0.9l-0.6-0.2
		c-5.8-1.6-11.4-3.1-13-10.6c-1.7-7.9,1.9-19,6.4-26c2.2-3.5,5.6-4.6,9.2-5.8c0.3-0.1,0.6-0.2,0.9-0.3c6.9-2.5,12.2-3.5,17.9-3.5
		c2.9,0,5.9,0.3,9.1,0.9c15.5,2.9,22,8.2,25.8,21.2c0.5,1.8,1,3.8,1.4,5.5c2,8.6,4.1,17.5,13.5,17.5c1.1,0,2.2-0.1,3.2-0.3
		c1.6-0.3,3.8-1.2,4.9-1.6c7.5-3.1,14.7-8.9,20.5-16.5c5.7-7.4,9.6-16,10.9-24.2c0.8-4.8,0.6-9.6,0.4-14.3
		c-0.2-3.9-0.3-7.9,0.1-11.8c0.5-4.8,1.6-6.6,3.5-9.5l0.4-0.7c0.4-0.6,0.8-1.4,1.3-2.2c5.2-4.2,11.3-6.3,18.1-6.3
		c1.8,0,3.7,0.2,5.6,0.5l0.6,0.1v-1.3l-0.4-0.1C354.1,177.3,352.2,177.2,350.4,177.2z"/>
	<path d="M353.1,194.2c-5.5,0-10.4,3.8-12.4,9.6v0c-1.4,4.1-1.7,8.2-2,13.1l0,0.3c-0.1,1.6-0.2,3.2-0.4,5
		c-0.7,7.5-2.2,15.5-3.4,21.9l-0.1,0.4c-1.3,7-2.5,13.7-2.8,19l0.1,0.3l0.2,0.1c0.9,0.7,1.9,1.3,3.1,1.3c0.3,0,0.5,0,0.7-0.1
		l0.1-0.1c2.7-1.5,5.5-2.9,8.3-4.3c3.7-1.8,7.9-3.8,11.7-6.4l0.2-0.1v-1.5l-0.8,0.5c-3.6,2.5-7.7,4.5-11.6,6.3l-0.4,0.2
		c-2.7,1.3-5.5,2.7-8.1,4.2c-0.1,0-0.2,0-0.3,0c-0.8,0-1.5-0.4-2.1-0.8c0.3-5.2,1.5-11.8,2.8-18.8c1.4-7.2,2.8-14.7,3.4-22.1
		c0.2-2,0.3-3.8,0.4-5.3c0.3-4.7,0.5-8.8,1.9-12.8c1.8-5.3,6.2-8.7,11.2-8.7c0.9,0,1.8,0.1,2.8,0.4l0.6,0.2v-1.3l-0.4-0.1
		C355.2,194.3,354.2,194.2,353.1,194.2z"/>
	<path d="M238.1,239.4c-5.3,0-10.6,2.6-10.7,8.5l0,0.1c1.6,5.6,9.3,12.4,16.1,12.4c1.7,0,3.3-0.4,4.6-1.3c2-1.3,3.2-3.2,3.6-5.5
		c0.5-2.9-0.4-6.5-2.3-9.1C247.2,241.4,242.8,239.4,238.1,239.4z M243.5,259.2c-6.2,0-13.3-6.2-14.9-11.4c0.1-4.9,4.8-7.2,9.4-7.2
		c4.3,0,8.4,1.8,10.5,4.6c1.7,2.3,2.5,5.5,2,8.1v0c-0.4,2-1.4,3.6-3.1,4.7C246.3,258.9,245,259.2,243.5,259.2z"/>
	<path d="M326.1,272.7l-0.2-0.1c-0.5-0.2-1.1-0.3-1.7-0.3c-2.4,0-4.9,1.4-7.3,2.8l-0.3,0.2c-0.8,0.4-1.5,0.9-2.3,1.3
		c-0.5,0.2-1,0.5-1.5,0.8c-7.8,3.8-18.5,9.1-17.8,21.8l0,0.1c1.1,4,4.5,8.1,9.5,8.1c0.4,0,0.9,0,1.4-0.1l0.1,0
		c8.8-3.6,14-13.8,17.6-22.2l0.3-0.6c1.6-3.8,3.5-8.1,2.4-11.3L326.1,272.7z M322.7,283.8l-0.3,0.7c-3.5,8.2-8.6,18-16.8,21.5
		c-0.5,0.1-0.8,0.1-1.1,0.1c-4.3,0-7.2-3.5-8.2-7c-0.7-11.7,9.6-16.8,17.1-20.5c0.2-0.1,0.4-0.2,0.6-0.3c0.3-0.2,0.7-0.3,0.9-0.5
		c0.7-0.3,1.3-0.7,2-1.1l0.7-0.4c2.1-1.2,4.5-2.7,6.6-2.7c0.4,0,0.7,0,1,0.1C325.8,276.4,324.2,280.3,322.7,283.8z"/>
	<path d="M231.4,367.2c-2.7-2.4-5.3-3.7-7.9-3.7c-6.1,0-10.2,6.9-11.1,13.7c-0.6,5-0.5,10.5,0.4,15c0.9,4.5,2.8,6.9,6.6,8.2
		c0.8,0.3,1.9,0.6,3.1,0.8c2,0.4,3.7,0.6,5.3,0.6c4.4,0,7.6-1.5,9.6-4.6c2.2-3.4,1.9-11.2,1.3-15.3
		C237.9,376.1,235.2,370.7,231.4,367.2L231.4,367.2z M227.8,400.5c-1.6,0-3.2-0.2-5-0.6c-1.1-0.2-2.1-0.5-2.9-0.8
		c-3.4-1.2-4.9-3.1-5.7-7.2c-0.9-4.3-1-9.6-0.4-14.6c0.8-6.3,4.4-12.6,9.8-12.6c2.3,0,4.7,1.1,7,3.3c3.6,3.4,6.1,8.5,6.9,14
		c0.5,3.6,0.9,11.4-1.1,14.4l0,0C234.6,399.2,231.7,400.5,227.8,400.5z"/>
	<path d="M338.8,449.9c-8.5,3.5-14.8,9.6-20.8,15.5l-0.2,0.1c-6.3,6.1-12.2,11.8-19.9,14.1c-10.6,3.1-18.8-4.8-26.6-12.5l-1.5-1.4
		c-4.1-4-9.2-7.1-13.7-9.8l-0.1-0.1c-3.3-2-6.7-4.1-9.8-6.5c-2.4-1.9-5-3.7-7.3-5.2l-1.7-1.2c-1.1-0.8-2.1-1.5-3.2-2.3
		c-2.6-1.9-4.4-4.9-6.2-7.9l-0.3-0.4c-0.9-1.5-1.8-3-2.9-4.3c-3.1-4-7.5-7-11.7-10c-7.6-5.2-14.8-10.2-15.3-20.4
		c-0.3-6.1,1.1-13.8,3.8-20.9c2.6-6.8,7.5-14.2,13.4-20.2c4-4,8-5.9,11.9-5.6c7.1,0.6,13.2,8.2,17.7,14.7c2.7,3.9,3.8,7.8,4.8,11.5
		c0.6,2.2,1.3,4.6,2.4,7.3c0.9,2.2,1.9,4.3,3,6.4l0.5,1.1c2.1,4.1,3.9,7.8,5,11.7c2,6.9,2.4,16.8-0.7,22.5
		c-3.2,5.8-1.7,15.6,1.6,20.7c3,4.7,10.4,7.6,16.4,10c1,0.4,2,0.8,2.9,1.2l0.8,0.3c0.2,0.1,0.5,0.2,0.7,0.3c0.3,0.1,0.6,0.3,0.9,0.4
		l0.5,0.2c1.7,0.8,3.2,1.4,5,1.8c9.5,1.9,16-2.6,19.9-13.7c4.1-11.7,1.3-22.3-8-29.9c-2.8-2.3-6-4-9-5.7c-1.4-0.7-2.8-1.6-4.2-2.4
		l-0.4-0.2c-0.2-0.1-0.5-0.3-0.7-0.4c-3.9-2.3-8.8-5.3-11.5-8.6c-4.1-5.1-7.4-10.7-9.9-16.5c-1.3-3-2.3-6.1-3.3-9.3
		c-0.8-2.3-1.6-4.7-2.5-7.2c-1.6-4.4-4.3-9.1-7.6-13.7c-4.4-5.9-12.2-13.9-20-16.8c-12.4-4.6-29.1,7.5-37.3,16.8
		c-4.5,5.1-7.5,11.6-9.8,17.3c-0.3,0.6-0.5,1.3-0.8,1.9c-0.3,0.9-0.7,1.8-1.1,2.6c-3.3,8.3-6.4,16.2-11.7,23.5
		c-1.7,2.3-3.1,4.8-4.4,7.2l-0.6,1c-0.8,1.5-1.7,3-2.6,4.4c-2.8,4.3-7,6.9-11.2,9.1c-1.5,0.8-3,1.5-4.5,2.2l-1.5,0.7
		c-5.4,2.5-11.5,5.3-16.4,10c-3.2,3-4.4,6.2-3.7,9.5c1.1,5.4,7,9.4,12.2,11.3c10.7,4,22.8,2.5,33.5,1.2l1.4-0.1
		c0.4,0,0.8-0.1,1.2-0.1c0.4,0,0.9-0.1,1.3-0.1c4.8-0.5,9.3-0.9,13.8-3.6c0.6-0.4,1.3-0.7,1.9-1.1l0.4-0.2
		c6.7-3.8,12.5-7.1,20.1-8.8c4.8-1.1,11.8-1,16.1,1.7c2.1,1.3,3,3.3,3.9,5.4c0.6,1.4,1.3,2.8,2.2,4.1c3.7,4.8,8.7,8.6,13.5,12.3
		l0.2,0.1c4.7,3.6,9.6,7.3,13.3,12c2.1,2.6,3.8,5.9,5.6,9.1l0.3,0.5c2,3.7,3.8,7,5.9,9.6c3.3,4.1,7.6,6.3,12.3,6.3
		c1.7,0,3.4-0.3,5.2-0.8c5.7-1.8,12-6.6,18.2-11.3l1-0.8c0.6-0.5,1.2-0.9,1.7-1.3c3.2-2.4,6.3-4.9,9.3-7.4
		c8.2-6.7,15.9-13,24.6-16.5c3.1-1.3,6.9-2.3,11.6-3.2l0.4-0.1v-1.3l-0.6,0.1c-5,1-8.8,2-11.9,3.3c-8.8,3.5-16.5,9.8-24.7,16.5
		l-0.3,0.2c-3.2,2.6-6.1,5-9.2,7.3c-0.9,0.7-1.8,1.4-2.7,2.1l-0.2,0.1c-6,4.6-12.1,9.3-17.6,11c-6.2,1.9-11.9,0.1-16.1-5
		c-2.1-2.7-4-6.1-5.7-9.4c-1.7-3.2-3.7-6.9-6-9.8c-3.9-4.9-9-8.8-13.5-12.2c-4.8-3.7-9.8-7.5-13.4-12.2c-0.8-1.1-1.4-2.4-2-3.6
		l-0.1-0.3c-1-2.3-2-4.4-4.4-5.9c-4.6-2.9-12.1-3-17.1-1.9c-8,1.8-14.1,5.3-20.6,9c-0.6,0.4-1.4,0.8-2.1,1.2
		c-4.3,2.4-8.7,2.9-13.4,3.4c-0.8,0.1-1.7,0.2-2.5,0.3l-1.5,0.2c-10.6,1.2-22.5,2.6-32.8-1.2c-6.1-2.3-10.6-6.3-11.4-10.4
		c-0.6-2.9,0.6-5.7,3.4-8.3c4.6-4.4,10.4-7.1,16-9.8c2.4-1.1,4.3-2,6-2.9c4.3-2.2,8.7-4.9,11.7-9.6c1.1-1.8,2.2-3.7,3.1-5.4
		c1.3-2.4,2.7-4.9,4.4-7.2c5.3-7.3,8.5-15.2,11.8-23.6l0.1-0.2c0.6-1.5,1.2-3,1.8-4.6c2.4-5.9,5.3-12,9.6-16.9
		c7.9-9,24.1-20.9,35.9-16.5c7.6,2.8,15.2,10.6,19.4,16.4c2.3,3.1,5.4,7.9,7.5,13.4c0.9,2.4,1.7,4.7,2.5,7.1
		c1.1,3.4,2.1,6.4,3.4,9.4c2.5,5.9,5.9,11.5,10.1,16.8c2.8,3.5,7.8,6.5,11.9,9c0.4,0.2,0.7,0.4,1.1,0.6c0.9,0.6,1.9,1.1,2.9,1.6
		c0.5,0.2,0.9,0.5,1.3,0.8c3,1.6,6.1,3.3,8.8,5.6c8.8,7.3,11.5,17.4,7.6,28.5c-3.7,10.5-9.7,14.7-18.4,12.9c-1.7-0.4-3.2-1-5.2-1.9
		c-0.5-0.2-1-0.5-1.6-0.7c-0.6-0.2-1.2-0.5-1.9-0.8c-0.6-0.2-1.2-0.5-1.8-0.7l-0.1-0.1c-5.8-2.3-12.9-5.1-15.7-9.4
		c-3.1-4.8-4.5-14-1.6-19.4c3.2-6,2.8-16.4,0.8-23.5c-1.2-4-3-7.8-4.8-11.5l-0.2-0.5c-1.2-2.3-2.4-4.8-3.5-7.3c-1-2.4-1.7-4.7-2.3-7
		l0-0.1c-1.1-3.8-2.2-7.8-5-11.9c-4.7-6.8-11.1-14.6-18.7-15.3c-4.3-0.4-8.7,1.6-12.9,6c-6.1,6.2-11.1,13.7-13.7,20.6
		c-2.8,7.3-4.2,15.2-3.9,21.5c0.5,10.8,8.3,16.1,15.8,21.3c4.2,2.9,8.5,5.8,11.5,9.7c1.1,1.4,2,3,3.1,4.7c1.8,3,3.7,6.1,6.5,8.1
		c1.6,1.1,3.2,2.3,4.9,3.5l0.5,0.3c2.2,1.6,4.6,3.2,6.7,4.9c3.1,2.4,6.4,4.5,10.1,6.7c4.6,2.8,9.4,5.8,13.4,9.6
		c0.5,0.5,1,0.9,1.5,1.5c8.1,7.9,16.5,16.1,27.8,12.7c8-2.3,14.1-8.2,20.5-14.4c6-5.8,12.2-11.9,20.6-15.4c5.3-2.2,11-3.5,16.9-4.7
		l0.4-0.1V445l-0.6,0.1C350.3,446.3,344.3,447.6,338.8,449.9z"/>
	<path d="M327.9,385.9c-4.3,0.9-8.7,3-13.3,5.3l-0.4,0.2c-7.7,3.8-15.6,7.7-22.7,5.4c-13.1-4.1-18.1-18.1-22.6-30.4l-0.5-1.4
		c-0.8-2.1-1.5-4-2.2-5.9c-2.1-5.2-4.7-10-7.7-14.2c-4.8-6.7-10.6-10.8-16.8-15.1c-0.5-0.3-1-0.7-1.5-1c-0.4-0.3-0.9-0.6-1.3-0.9
		c-5.5-3.9-12.2-7.8-20-6.6c-2.5,0.4-5.1,1.7-7.4,2.9c-1.4,0.7-2.9,1.5-4.3,2c-0.6,0.2-1.2,0.4-1.8,0.7l-1.3,0.5
		c-8.2,2.9-16.7,6-22.6,12.8c-1.7,1.9-3.1,4.3-4.4,6.7l-0.1,0.1c-0.9,1.5-1.5,2.5-2.1,3.5c-2.9,4.3-5.4,9.2-7.5,14.6
		c-2.3,5.8-3.6,12.1-4.8,17.6l0,0.2c-1.3,6.3-2.7,12.7-5.2,18.6c-2.6,6-9.4,10.3-15.4,14.1l-0.2,0.1c-1.6,1-3.1,2-4.4,2.9
		c-4,2.8-7.5,6.1-11.3,9.8l-0.4,0.4c-2.2,2.1-4.4,4.3-6.7,6.2c-5.9,5-8.5,13.5-6.9,22.2c2.8,15.2,8.8,17.7,21.6,19.9
		c9.6,1.6,20.8,1.2,34.2-1.1c7.7-1.4,15-6.3,22.1-11.1l0.1-0.1c2.6-1.8,5-3.4,7.3-4.8c9.7-5.9,21.2-4.6,30.8,3.3l0.2,0.2
		c1.2,1,2.4,1.9,3.6,2.9c7.3,5.9,14.3,11.4,18,20.2c1.6,3.8,2.7,7.8,3.7,11.8l0.1,0.2c1,3.9,2.1,8,3.7,11.9
		c2.4,5.9,7.2,12.3,12.4,16.9c3.7,3.3,9,6.8,14.7,6.8c1.2,0,2.5-0.2,3.8-0.5c6.5-1.9,10.3-9.2,14.4-16.9c2.2-4.3,5-9.6,8.5-13.9
		c4.4-5.4,10.4-10.2,14.6-13.4l0.6-0.5c8.7-6.8,17-13.2,27.9-15.3c0.6-0.1,1.3-0.3,2.1-0.4l0.4-0.1v-1.3l-0.6,0.1
		c-0.7,0.1-1.5,0.2-2.2,0.4c-11.2,2.2-19.6,8.8-28.5,15.7l-0.5,0.3c-6.4,5-11.3,9.5-14.7,13.6c-3.4,4-5.9,8.9-8.4,13.6l-0.3,0.6
		c-3.9,7.5-7.5,14.5-13.6,16.3c-6.5,1.9-13-2.2-17.3-6c-5-4.4-9.8-10.9-12-16.5c-1.6-3.8-2.6-7.8-3.7-11.7l-0.1-0.4
		c-1-3.9-2.1-8-3.7-11.8c-3.8-9.1-11.2-15-18.4-20.8l-0.7-0.5c-1-0.8-2-1.6-3-2.5c-10-8.3-22.1-9.5-32.3-3.4
		c-2.4,1.5-4.9,3.1-7.4,4.8c-7,4.7-14.2,9.7-21.8,11c-13.2,2.3-24.3,2.7-33.8,1.1c-12.2-2-17.8-4.4-20.5-18.9
		c-1.5-8.2,0.9-16.3,6.5-21c2.5-2.1,4.8-4.4,7.2-6.7l0.2-0.2c3.4-3.3,6.9-6.7,10.9-9.6c1-0.7,2.2-1.4,3.4-2.2l1.2-0.8
		c6.2-3.9,13.2-8.3,15.9-14.7c2.5-6,3.9-12.5,5.3-18.7l0.2-0.8c1.2-5.6,2.5-11.5,4.6-16.8c2-5.2,4.5-10,7.3-14.4
		c0.6-1,1.2-2,1.9-3.1l0.3-0.6c1.3-2.3,2.7-4.7,4.3-6.5c5.7-6.4,14-9.5,22.1-12.4c1.1-0.4,2.1-0.8,3.2-1.2c1.3-0.5,2.7-1.2,4-1.9
		l0.4-0.2c2.2-1.1,4.7-2.4,7.1-2.8c7.3-1,13.8,2.7,19.1,6.4c1,0.7,1.9,1.3,2.8,1.9l0.2,0.1c6,4.2,11.7,8.2,16.3,14.6
		c2.9,4.1,5.5,8.8,7.6,14c0.7,1.8,1.4,3.8,2.2,5.8l0.5,1.5c4.6,12.6,9.7,26.9,23.4,31.2c7.7,2.4,15.9-1.6,23.8-5.5
		c4.4-2.2,9-4.4,13.3-5.3c5.7-1.2,16.4-1.8,27.9-1.5l0.5,0v-1.3l-0.5,0C344.4,384,333.6,384.6,327.9,385.9z"/>
	<path d="M322.3,172.5c-7.4,5.1-11.8,12.4-13.2,21.6c-0.5,3.7-0.1,7.7,0.3,11.2c0.4,3.6,0.9,7.8,0.2,11.6c-0.7,4.2-2.9,8-5.8,9.7
		c-1.9,1.1-4,1.3-6.3,0.5c-7.9-9.2-14.4-15.2-24.1-19.2c-2.8-1.1-5.6-2.1-9.1-3.2c-1.7-0.5-3.4-1.1-5.1-1.6
		c-10.5-3.5-21.5-7-39.3-5.6c-8.6,0.7-15.1,2.3-20.8,8.1c-3.6,3.6-6.3,7.9-9.2,12.7l-0.5,0.8c-1.8,2.9-3.6,5.8-5.7,8.5
		c-1.1,1.4-2.5,2.8-3.8,4.2l-0.4,0.4c-1.9,2-3.9,4.1-5.3,6.4c-3.2,5.1-3.4,13.5-2.2,19.2c1.6,7.4,6.3,13.7,11,19.5
		c0.9,1.1,1.7,2.3,2.6,3.5l0.8,1.2c3.1,4.5,6.4,9.2,11,11.6c5.1,2.7,10.9,2.7,16.4,2.3c1.8-0.1,3.5-0.6,5.2-1l0.7-0.2
		c2.7-0.7,5.4-1.5,8-1c9.7,1.7,20.6,8.5,27.6,14.2c3.8,3.1,7.3,6.6,10.2,10.4c2.3,2.9,4.4,5.8,7,9.2c3.9,5.2,8.3,11.1,13.2,16.9
		c3.6,4.2,8,8.2,14.3,8.2c1.8,0,3.7-0.3,5.8-1c5.3-1.8,9.8-5,14-8.1c6.3-4.6,11.8-11,17.2-17.2c4.7-5.4,9.5-10.9,14.1-14.2
		c1.1-0.8,2.5-1.6,5-2.2l0.4-0.1v-1.3l-0.6,0.1c-2.6,0.6-4.2,1.5-5.5,2.4c-4.7,3.4-9.4,8.7-14.4,14.5c-5.3,6.1-10.9,12.4-17,16.9
		c-4.1,3-8.5,6.1-13.7,7.9c-8.8,3-14.4-1.7-18.7-6.8c-4.9-5.8-9.3-11.6-13.1-16.8c-2.5-3.3-4.7-6.3-7.1-9.2
		c-3.1-3.9-6.6-7.5-10.4-10.6c-7.1-5.8-18.3-12.7-28.1-14.4c-3-0.5-6,0.3-8.6,1l-0.4,0.1c-1.7,0.4-3.5,0.9-5.2,1
		c-5.4,0.4-11,0.4-15.7-2.1c-4.3-2.3-7.5-6.8-10.6-11.2c-1-1.5-2.2-3.2-3.5-4.7c-4.6-5.7-9.2-11.8-10.7-19c-1.1-5.4-1-13.5,2-18.3
		c1.4-2.3,3.5-4.5,5.5-6.5c1.4-1.4,2.7-2.9,3.9-4.4c2.3-2.8,4.2-5.9,6.3-9.3l0.1-0.1c2.6-4.3,5.4-8.7,9-12.3c5.4-5.5,11.7-7,20-7.7
		c17.7-1.4,28.4,2.1,38.8,5.5c1.7,0.5,3.4,1.1,5.1,1.6c3.6,1.1,6.4,2.1,9,3.2c9.6,3.9,15.9,9.9,23.7,19l0.2,0.1
		c2.7,1,5.2,0.8,7.6-0.5c3.2-1.8,5.7-6,6.4-10.6c0.6-3.9,0.2-7.9-0.2-11.9l-0.3,0c0,0,0,0,0-0.1l0.2-0.1c-0.4-3.7-0.8-7.5-0.3-10.9
		c1.3-8.8,5.5-15.8,12.6-20.7c8.1-5.6,19.5-8.3,33.1-7.8l0.5,0v-1.3l-0.5,0C342.2,164,330.5,166.8,322.3,172.5z"/>
</g>
</svg>
